<svg xmlns="http://www.w3.org/2000/svg" xmlns:xlink="http://www.w3.org/1999/xlink" viewBox="0 0 402.04 393.24"><defs><clipPath id="clip-path" transform="translate(-47.61 -43.06)"><path d="M192.57,232.89l6.09,18a6,6,0,0,0,6.37,4L231.81,252a5.94,5.94,0,0,0,5.2-5.38l1.67-18.94a4.21,4.21,0,0,0-4.66-4.54l-37.93,4.24A4.2,4.2,0,0,0,192.57,232.89Z" style="fill:#263238;stroke:#263238;stroke-linecap:round;stroke-linejoin:round;stroke-width:1.08162px"/></clipPath></defs><g id="Background_Simple" data-name="Background Simple"><path d="M47.73,259.58s2.33,72.16,62.56,120.25,143.7,51.54,211.27,56.1S441,402.25,448.85,344.43,405,269.64,377,203.82s-25.52-87.46-84.8-127.94-152-15.62-200.61,53.73S47.73,259.58,47.73,259.58Z" transform="translate(-47.61 -43.06)" style="fill:#c6ff00"/><path d="M47.73,259.58s2.33,72.16,62.56,120.25,143.7,51.54,211.27,56.1S441,402.25,448.85,344.43,405,269.64,377,203.82s-25.52-87.46-84.8-127.94-152-15.62-200.61,53.73S47.73,259.58,47.73,259.58Z" transform="translate(-47.61 -43.06)" style="fill:#fff;opacity:0.7000000000000001"/></g><g id="Floor"><line x1="320.52" y1="223.71" x2="40.75" y2="223.71" style="fill:none;stroke:#263238;stroke-miterlimit:10;stroke-width:1.08162px"/></g><g id="Plants"><path d="M345.15,65.75s0-4.93-6.91-11.84-11.35-10.85-11.35-10.85-3.45,11.35,3,18.25a121.37,121.37,0,0,0,15.3,13.32Z" transform="translate(-47.61 -43.06)" style="fill:#c6ff00"/><path d="M335.12,96.56s0-4.93-6.9-11.84-11.35-10.85-11.35-10.85-3.45,11.35,3,18.25a121.38,121.38,0,0,0,15.29,13.33Z" transform="translate(-47.61 -43.06)" style="fill:#c6ff00"/><path d="M344.71,74.16s.53-4.91,8.12-11,12.43-9.59,12.43-9.59,2.24,11.65-4.87,17.84A121.71,121.71,0,0,1,343.78,83Z" transform="translate(-47.61 -43.06)" style="fill:#c6ff00"/><path d="M332.6,110.54s1-4.82,9.24-10.13,13.37-8.23,13.37-8.23,1,11.82-6.72,17.23a121.33,121.33,0,0,1-17.75,9.82Z" transform="translate(-47.61 -43.06)" style="fill:#c6ff00"/><path d="M334.88,150.22s0-4.94,6.91-11.84,11.34-10.86,11.34-10.86,3.46,11.35-3,18.26a121.81,121.81,0,0,1-15.29,13.32Z" transform="translate(-47.61 -43.06)" style="fill:#c6ff00"/><path d="M334.77,159.9s.7-4.88-5.16-12.7-9.69-12.36-9.69-12.36-5,10.74.34,18.49a121.74,121.74,0,0,0,13.24,15.36Z" transform="translate(-47.61 -43.06)" style="fill:#c6ff00"/><path d="M328,188.6s0-4.94,6.9-11.84,11.35-10.86,11.35-10.86,3.45,11.35-3,18.26A121.81,121.81,0,0,1,328,197.48Z" transform="translate(-47.61 -43.06)" style="fill:#c6ff00"/><path d="M332.57,214.62s-1.25-4.78,3.68-13.21S344.48,188,344.48,188s6.21,10.1,1.76,18.41a122.35,122.35,0,0,1-11.42,16.76Z" transform="translate(-47.61 -43.06)" style="fill:#c6ff00"/><path d="M345.77,64.49a139.43,139.43,0,0,1-1.89,15.32c-2.73,14.1-9.55,23.21-12.28,36s5.1,29.15,3,45.52-8.46,25.46-6.64,36.38,11.37,40.5,11.37,40.5" transform="translate(-47.61 -43.06)" style="fill:none;stroke:#263238;stroke-linecap:round;stroke-linejoin:round;stroke-width:1.08162px"/><line x1="297.04" y1="34.38" x2="304.48" y2="28.66" style="fill:none;stroke:#263238;stroke-linecap:round;stroke-linejoin:round;stroke-width:1.08162px"/><line x1="297.39" y1="27.8" x2="294.27" y2="22.26" style="fill:none;stroke:#263238;stroke-linecap:round;stroke-linejoin:round;stroke-width:1.08162px"/><path d="M332,115.17s6.23-4.67,12.64-9.35" transform="translate(-47.61 -43.06)" style="fill:none;stroke:#263238;stroke-linecap:round;stroke-linejoin:round;stroke-width:1.08162px"/><path d="M335.12,105.45s-5.19-10.18-11.07-16.94" transform="translate(-47.61 -43.06)" style="fill:none;stroke:#263238;stroke-linecap:round;stroke-linejoin:round;stroke-width:1.08162px"/><path d="M335.13,157.23a76.83,76.83,0,0,1,13.32-17.82" transform="translate(-47.61 -43.06)" style="fill:none;stroke:#263238;stroke-linecap:round;stroke-linejoin:round;stroke-width:1.08162px"/><path d="M333.91,164.16a86.25,86.25,0,0,0-6.75-12.81c-3.63-5.37-4.15-6.06-4.15-6.06" transform="translate(-47.61 -43.06)" style="fill:none;stroke:#263238;stroke-linecap:round;stroke-linejoin:round;stroke-width:1.08162px"/><path d="M328,197.66a82.12,82.12,0,0,1,5.61-11.35,72.05,72.05,0,0,1,7.27-9.52" transform="translate(-47.61 -43.06)" style="fill:none;stroke:#263238;stroke-linecap:round;stroke-linejoin:round;stroke-width:1.08162px"/><path d="M334.82,223.21a21.19,21.19,0,0,1,1.86-10.93c2.6-5,5.54-11.6,6.75-14.19" transform="translate(-47.61 -43.06)" style="fill:none;stroke:#263238;stroke-linecap:round;stroke-linejoin:round;stroke-width:1.08162px"/><path d="M299.92,131.66s-.54-3.09,3.05-8.17,5.93-8,5.93-8,3.4,6.74.13,11.77a77.29,77.29,0,0,1-8.15,10Z" transform="translate(-47.61 -43.06)" style="fill:#c6ff00"/><path d="M309.55,149.89s-.53-3.09,3.05-8.17,5.93-8,5.93-8,3.4,6.74.13,11.77a76.51,76.51,0,0,1-8.15,10Z" transform="translate(-47.61 -43.06)" style="fill:#c6ff00"/><path d="M301.1,136.88s-.86-3-6.29-6-8.83-4.67-8.83-4.67-.14,7.55,5,10.66a77.4,77.4,0,0,0,11.68,5.49Z" transform="translate(-47.61 -43.06)" style="fill:#c6ff00"/><path d="M312.65,158.39s-1.17-2.92-6.89-5.35-9.28-3.72-9.28-3.72.66,7.52,6.08,10.08a77.72,77.72,0,0,0,12.2,4.23Z" transform="translate(-47.61 -43.06)" style="fill:#c6ff00"/><path d="M315.53,183.51s-.54-3.09-5.62-6.67-8.29-5.58-8.29-5.58-.94,7.49,3.83,11.13a78.05,78.05,0,0,0,11,6.69Z" transform="translate(-47.61 -43.06)" style="fill:#c6ff00"/><path d="M316.65,189.57s-1-3,1.85-8.52,4.74-8.8,4.74-8.8,4.32,6.19,1.79,11.63A77.27,77.27,0,0,1,318.4,195Z" transform="translate(-47.61 -43.06)" style="fill:#c6ff00"/><path d="M325.32,214.53s.36-3.12,5.23-7,8-6,8-6,1.36,7.43-3.2,11.33a77,77,0,0,1-10.63,7.31Z" transform="translate(-47.61 -43.06)" style="fill:#c6ff00"/><path d="M324,206.83s-.54-3.1-5.62-6.68-8.29-5.57-8.29-5.57-.94,7.49,3.83,11.12a77.54,77.54,0,0,0,11,6.7Z" transform="translate(-47.61 -43.06)" style="fill:#c6ff00"/><path d="M324,223.64s.26-3.12-3.74-7.88-6.61-7.49-6.61-7.49-2.81,7,.89,11.74a78.12,78.12,0,0,0,9,9.27Z" transform="translate(-47.61 -43.06)" style="fill:#c6ff00"/><path d="M299.39,130.94a89.48,89.48,0,0,0,2.85,9.4c3.24,8.55,8.51,13.51,11.61,21.21s0,18.83,3,28.87S325,205.47,325,212.51s-2.74,26.63-2.74,26.63" transform="translate(-47.61 -43.06)" style="fill:none;stroke:#263238;stroke-linecap:round;stroke-linejoin:round;stroke-width:1.08162px"/><line x1="253.9" y1="95.87" x2="248.61" y2="93.1" style="fill:none;stroke:#263238;stroke-linecap:round;stroke-linejoin:round;stroke-width:1.08162px"/><line x1="252.97" y1="91.78" x2="254.32" y2="87.97" style="fill:none;stroke:#263238;stroke-linecap:round;stroke-linejoin:round;stroke-width:1.08162px"/><path d="M313.52,161.22s-4.41-2.25-8.94-4.49" transform="translate(-47.61 -43.06)" style="fill:none;stroke:#263238;stroke-linecap:round;stroke-linejoin:round;stroke-width:1.08162px"/><path d="M310.51,155.46a63.32,63.32,0,0,1,5.11-11.82" transform="translate(-47.61 -43.06)" style="fill:none;stroke:#263238;stroke-linecap:round;stroke-linejoin:round;stroke-width:1.08162px"/><path d="M316.14,187.94a49.28,49.28,0,0,0-10.3-9.73" transform="translate(-47.61 -43.06)" style="fill:none;stroke:#263238;stroke-linecap:round;stroke-linejoin:round;stroke-width:1.08162px"/><path d="M317.65,192.15a55,55,0,0,1,2.84-8.77c1.7-3.76,1.95-4.25,1.95-4.25" transform="translate(-47.61 -43.06)" style="fill:none;stroke:#263238;stroke-linecap:round;stroke-linejoin:round;stroke-width:1.08162px"/><path d="M324.78,217.86a46.58,46.58,0,0,1,5.69-5.91,29.62,29.62,0,0,0,3.69-3.21" transform="translate(-47.61 -43.06)" style="fill:none;stroke:#263238;stroke-linecap:round;stroke-linejoin:round;stroke-width:1.08162px"/><path d="M325,212.51a52.72,52.72,0,0,0-4.75-6.5,46.89,46.89,0,0,0-5.59-5.19" transform="translate(-47.61 -43.06)" style="fill:none;stroke:#263238;stroke-linecap:round;stroke-linejoin:round;stroke-width:1.08162px"/><path d="M323.49,229.28a13.38,13.38,0,0,0-2.36-6.65c-2.17-2.87-4.73-6.68-5.77-8.17" transform="translate(-47.61 -43.06)" style="fill:none;stroke:#263238;stroke-linecap:round;stroke-linejoin:round;stroke-width:1.08162px"/><path d="M346,272.82H315.56a2.88,2.88,0,0,1-2.87-2.87l-4.52-34.22h45.18L348.84,270A2.88,2.88,0,0,1,346,272.82Z" transform="translate(-47.61 -43.06)" style="fill:#263238"/><path d="M353,241.62H308.17a3.53,3.53,0,0,1-3.53-3.53h0a3.53,3.53,0,0,1,3.53-3.54H353a3.54,3.54,0,0,1,3.54,3.54h0A3.54,3.54,0,0,1,353,241.62Z" transform="translate(-47.61 -43.06)" style="fill:#263238"/></g><g id="Character"><path d="M307.81,313.15a4.71,4.71,0,0,1-4.24-6.77,8,8,0,0,0-3.17-10.49c-7.06-4.52-23.48-5.24-29.23-5.16h-.08a4.72,4.72,0,0,1-.09-9.43c2.41-.05,23.76-.22,34.48,6.64,10.57,6.76,8.93,17.71,6.58,22.55A4.73,4.73,0,0,1,307.81,313.15Z" transform="translate(-47.61 -43.06)" style="fill:#263238"/><polygon points="281.96 295 280.93 298.52 265.18 272.62 264.76 267.03 281.96 295" style="fill:#fff;stroke:#263238;stroke-linecap:round;stroke-linejoin:round;stroke-width:1.08162px"/><polygon points="280.93 298.52 285.84 296.1 286.73 292.72 281.96 295 280.93 298.52" style="fill:#fff;stroke:#263238;stroke-linecap:round;stroke-linejoin:round;stroke-width:1.08162px"/><polygon points="262.69 264.13 280.93 263.51 286.73 292.72 281.96 295 262.69 264.13" style="fill:#fff;stroke:#263238;stroke-linecap:round;stroke-linejoin:round;stroke-width:1.08162px"/><polygon points="260.21 265.37 278.44 296.04 272.43 298.94 245.5 276.98 260.21 265.37" style="fill:#fff;stroke:#263238;stroke-linecap:round;stroke-linejoin:round;stroke-width:1.08162px"/><polygon points="272.43 298.94 271.6 302.04 244.46 280.5 245.5 276.98 272.43 298.94" style="fill:#fff;stroke:#263238;stroke-linecap:round;stroke-linejoin:round;stroke-width:1.08162px"/><polygon points="272.43 298.94 278.44 296.04 277.61 299.14 271.6 302.04 272.43 298.94" style="fill:#fff;stroke:#263238;stroke-linecap:round;stroke-linejoin:round;stroke-width:1.08162px"/><path d="M302.15,313a9.25,9.25,0,1,0,9.24-9.24A9.24,9.24,0,0,0,302.15,313Z" transform="translate(-47.61 -43.06)" style="fill:#c6ff00;stroke:#263238;stroke-linecap:round;stroke-linejoin:round;stroke-width:1.08162px"/><polygon points="69.06 295 70.09 298.52 85.84 272.62 86.25 267.03 69.06 295" style="fill:#fff;stroke:#263238;stroke-linecap:round;stroke-linejoin:round;stroke-width:1.08162px"/><polygon points="70.09 298.52 65.18 296.1 64.29 292.72 69.06 295 70.09 298.52" style="fill:#fff;stroke:#263238;stroke-linecap:round;stroke-linejoin:round;stroke-width:1.08162px"/><polygon points="88.32 264.13 70.09 263.51 64.29 292.72 69.06 295 88.32 264.13" style="fill:#fff;stroke:#263238;stroke-linecap:round;stroke-linejoin:round;stroke-width:1.08162px"/><polygon points="90.81 265.37 72.58 296.04 78.59 298.94 105.52 276.98 90.81 265.37" style="fill:#fff;stroke:#263238;stroke-linecap:round;stroke-linejoin:round;stroke-width:1.08162px"/><polygon points="78.59 298.94 79.42 302.04 106.56 280.5 105.52 276.98 78.59 298.94" style="fill:#fff;stroke:#263238;stroke-linecap:round;stroke-linejoin:round;stroke-width:1.08162px"/><polygon points="78.59 298.94 72.58 296.04 73.41 299.14 79.42 302.04 78.59 298.94" style="fill:#fff;stroke:#263238;stroke-linecap:round;stroke-linejoin:round;stroke-width:1.08162px"/><path d="M135.43,316.29a4.72,4.72,0,0,1-3-8.38c37.52-30.53,29.87-76.05,29.79-76.51a4.72,4.72,0,1,1,9.29-1.66c.37,2.08,8.66,51.49-33.13,85.49A4.64,4.64,0,0,1,135.43,316.29Z" transform="translate(-47.61 -43.06)" style="fill:#263238"/><circle cx="124.39" cy="175.32" r="18.48" style="fill:#adadad;stroke:#263238;stroke-linecap:round;stroke-linejoin:round;stroke-width:1.08162px"/><path d="M144.08,313a9.25,9.25,0,1,1-9.25-9.24A9.25,9.25,0,0,1,144.08,313Z" transform="translate(-47.61 -43.06)" style="fill:#c6ff00;stroke:#263238;stroke-linecap:round;stroke-linejoin:round;stroke-width:1.08162px"/><ellipse cx="173.88" cy="224.07" rx="29.33" ry="27.36" style="fill:#adadad;stroke:#263238;stroke-linecap:round;stroke-linejoin:round;stroke-width:1.08162px"/><path d="M206.2,255.44l2.74,10.7a11.74,11.74,0,0,0,12.69,8.22h0a11.73,11.73,0,0,0,10.27-11.07l.54-10.79Z" transform="translate(-47.61 -43.06)" style="fill:#263238;stroke:#263238;stroke-linecap:round;stroke-linejoin:round;stroke-width:1.08162px"/><path d="M264,201.66a27.51,27.51,0,0,1-8.18-1.12l.76-2.24c.13,0,13.26,4.28,26.63-5.5l1.4,1.9A34.59,34.59,0,0,1,264,201.66Z" transform="translate(-47.61 -43.06)" style="fill:#263238"/><path d="M278.76,219.4c-10.81-15.82-23.12-14.62-23.25-14.61l-.26-2.34c.56-.07,13.86-1.36,25.45,15.61Z" transform="translate(-47.61 -43.06)" style="fill:#263238"/><path d="M276,230.56c-14-4.3-22.42-22.94-22.78-23.73l2.16-1c.08.18,8.35,18.45,21.31,22.44Z" transform="translate(-47.61 -43.06)" style="fill:#263238"/><line x1="235.69" y1="151.32" x2="239.47" y2="148.8" style="fill:none;stroke:#263238;stroke-miterlimit:10;stroke-width:1.08162px"/><line x1="231.08" y1="173.57" x2="233.59" y2="178.61" style="fill:none;stroke:#263238;stroke-miterlimit:10;stroke-width:1.08162px"/><path d="M274.27,228.6a27.5,27.5,0,0,0,6.09.84" transform="translate(-47.61 -43.06)" style="fill:none;stroke:#263238;stroke-miterlimit:10;stroke-width:1.08162px"/><polygon points="120.52 155.12 124 179.53 210.85 170.66 210.54 145.3 120.52 155.12" style="fill:#fff;stroke:#263238;stroke-linecap:round;stroke-linejoin:round;stroke-width:1.08162px"/><polygon points="124 179.53 139.54 218.83 206.42 212.18 210.85 170.66 124 179.53" style="fill:#e5e5e5;stroke:#263238;stroke-linecap:round;stroke-linejoin:round;stroke-width:1.08162px"/><path d="M192.57,232.89l6.09,18a6,6,0,0,0,6.37,4L231.81,252a5.94,5.94,0,0,0,5.2-5.38l1.67-18.94a4.21,4.21,0,0,0-4.66-4.54l-37.93,4.24A4.2,4.2,0,0,0,192.57,232.89Z" transform="translate(-47.61 -43.06)" style="fill:#263238"/><g style="clip-path:url(#clip-path)"><polyline points="144.95 199.69 156.02 198.71 159.52 189.19 167.79 204.03 171.99 192.97 174.09 196.47 194.12 194.09" style="fill:none;stroke:#fff;stroke-linecap:round;stroke-linejoin:round;stroke-width:1.08162px"/></g><path d="M192.57,232.89l6.09,18a6,6,0,0,0,6.37,4L231.81,252a5.94,5.94,0,0,0,5.2-5.38l1.67-18.94a4.21,4.21,0,0,0-4.66-4.54l-37.93,4.24A4.2,4.2,0,0,0,192.57,232.89Z" transform="translate(-47.61 -43.06)" style="fill:none;stroke:#263238;stroke-linecap:round;stroke-linejoin:round;stroke-width:1.08162px"/><circle cx="200.78" cy="182.12" r="4.86" style="fill:#fff;stroke:#263238;stroke-linecap:round;stroke-linejoin:round;stroke-width:1.08162px"/><path d="M252.34,240.38a4.56,4.56,0,1,1-4.56-4.56A4.56,4.56,0,0,1,252.34,240.38Z" transform="translate(-47.61 -43.06)" style="fill:#c6ff00;stroke:#263238;stroke-linecap:round;stroke-linejoin:round;stroke-width:1.08162px"/><path d="M189.21,230.47a4.86,4.86,0,1,1-6.06-3.25A4.86,4.86,0,0,1,189.21,230.47Z" transform="translate(-47.61 -43.06)" style="fill:#c6ff00;stroke:#263238;stroke-linecap:round;stroke-linejoin:round;stroke-width:1.08162px"/><path d="M192.73,245.28a4.56,4.56,0,1,1-5.69-3.05A4.56,4.56,0,0,1,192.73,245.28Z" transform="translate(-47.61 -43.06)" style="fill:#fff;stroke:#263238;stroke-linecap:round;stroke-linejoin:round;stroke-width:1.08162px"/><ellipse cx="156.25" cy="243.52" rx="12.92" ry="12.46" style="fill:#c6ff00;stroke:#263238;stroke-linecap:round;stroke-linejoin:round;stroke-width:1.08162px"/><path d="M184.86,314.55,196.69,288a5.1,5.1,0,0,1,6.17-2.79h0a5.1,5.1,0,0,1,3.47,6l-7.79,34.93Z" transform="translate(-47.61 -43.06)" style="fill:#263238;stroke:#263238;stroke-linecap:round;stroke-linejoin:round;stroke-width:1.08162px"/><path d="M180.91,273.82l25.83,60.79-31,4.25s-18.54-18.84-31-54.71Z" transform="translate(-47.61 -43.06)" style="fill:#adadad;stroke:#263238;stroke-linecap:round;stroke-linejoin:round;stroke-width:1.08162px"/><polygon points="133.3 230.76 134.52 224.98 160.35 286.99 159.14 291.55 133.3 230.76" style="fill:#fff;stroke:#263238;stroke-linecap:round;stroke-linejoin:round;stroke-width:1.08162px"/><polygon points="134.52 224.98 99.26 235.62 97.13 241.09 133.3 230.76 134.52 224.98" style="fill:#fff;stroke:#263238;stroke-linecap:round;stroke-linejoin:round;stroke-width:1.08162px"/><line x1="99.56" y1="246.87" x2="135.13" y2="235.92" style="fill:none;stroke:#263238;stroke-linecap:round;stroke-linejoin:round;stroke-width:1.08162px"/><line x1="102.3" y1="253.25" x2="138.17" y2="243.52" style="fill:none;stroke:#263238;stroke-linecap:round;stroke-linejoin:round;stroke-width:1.08162px"/><line x1="105.04" y1="259.94" x2="141.21" y2="250.21" style="fill:none;stroke:#263238;stroke-linecap:round;stroke-linejoin:round;stroke-width:1.08162px"/><line x1="108.99" y1="268.14" x2="144.24" y2="257.81" style="fill:none;stroke:#263238;stroke-linecap:round;stroke-linejoin:round;stroke-width:1.08162px"/><line x1="112.73" y1="274.66" x2="147.89" y2="265.41" style="fill:none;stroke:#263238;stroke-linecap:round;stroke-linejoin:round;stroke-width:1.08162px"/><line x1="116.59" y1="280.63" x2="150.93" y2="272.4" style="fill:none;stroke:#263238;stroke-linecap:round;stroke-linejoin:round;stroke-width:1.08162px"/><line x1="121.03" y1="286.36" x2="153.06" y2="278.78" style="fill:none;stroke:#263238;stroke-linecap:round;stroke-linejoin:round;stroke-width:1.08162px"/><line x1="124.19" y1="291.04" x2="156" y2="285.77" style="fill:#fff;stroke:#263238;stroke-linecap:round;stroke-linejoin:round;stroke-width:1.08162px"/><ellipse cx="190.66" cy="243.52" rx="12.92" ry="12.46" style="fill:#c6ff00;stroke:#263238;stroke-linecap:round;stroke-linejoin:round;stroke-width:1.08162px"/><path d="M257.27,314.55,245.43,288a5.09,5.09,0,0,0-6.17-2.79h0a5.1,5.1,0,0,0-3.46,6l7.79,34.93Z" transform="translate(-47.61 -43.06)" style="fill:#263238;stroke:#263238;stroke-linecap:round;stroke-linejoin:round;stroke-width:1.08162px"/><path d="M261.22,273.82l-25.84,60.79,31,4.25s18.54-18.84,31-54.71Z" transform="translate(-47.61 -43.06)" style="fill:#adadad;stroke:#263238;stroke-linecap:round;stroke-linejoin:round;stroke-width:1.08162px"/><polygon points="213.61 230.76 212.4 224.98 186.56 286.99 187.78 291.55 213.61 230.76" style="fill:#fff;stroke:#263238;stroke-linecap:round;stroke-linejoin:round;stroke-width:1.08162px"/><polygon points="212.4 224.98 247.65 235.62 249.78 241.09 213.61 230.76 212.4 224.98" style="fill:#fff;stroke:#263238;stroke-linecap:round;stroke-linejoin:round;stroke-width:1.08162px"/><line x1="247.35" y1="246.87" x2="211.79" y2="235.92" style="fill:none;stroke:#263238;stroke-linecap:round;stroke-linejoin:round;stroke-width:1.08162px"/><line x1="244.61" y1="253.25" x2="208.75" y2="243.52" style="fill:none;stroke:#263238;stroke-linecap:round;stroke-linejoin:round;stroke-width:1.08162px"/><line x1="241.88" y1="259.94" x2="205.71" y2="250.21" style="fill:none;stroke:#263238;stroke-linecap:round;stroke-linejoin:round;stroke-width:1.08162px"/><line x1="237.93" y1="268.14" x2="202.67" y2="257.81" style="fill:none;stroke:#263238;stroke-linecap:round;stroke-linejoin:round;stroke-width:1.08162px"/><line x1="234.18" y1="274.66" x2="199.02" y2="265.41" style="fill:none;stroke:#263238;stroke-linecap:round;stroke-linejoin:round;stroke-width:1.08162px"/><line x1="230.32" y1="280.63" x2="195.98" y2="272.4" style="fill:none;stroke:#263238;stroke-linecap:round;stroke-linejoin:round;stroke-width:1.08162px"/><line x1="225.88" y1="286.36" x2="193.85" y2="278.78" style="fill:none;stroke:#263238;stroke-linecap:round;stroke-linejoin:round;stroke-width:1.08162px"/><line x1="222.72" y1="291.04" x2="190.91" y2="285.77" style="fill:none;stroke:#263238;stroke-linecap:round;stroke-linejoin:round;stroke-width:1.08162px"/><line x1="237.16" y1="178.82" x2="240.52" y2="180.29" style="fill:none;stroke:#263238;stroke-miterlimit:10;stroke-width:1.08162px"/><line x1="235.06" y1="180.08" x2="238.42" y2="185.33" style="fill:none;stroke:#263238;stroke-miterlimit:10;stroke-width:1.08162px"/><line x1="233.17" y1="180.29" x2="232.55" y2="183.65" style="fill:none;stroke:#263238;stroke-miterlimit:10;stroke-width:1.08162px"/><line x1="241.36" y1="158.46" x2="249.55" y2="158.46" style="fill:none;stroke:#263238;stroke-miterlimit:10;stroke-width:1.08162px"/><line x1="235.06" y1="158.88" x2="246.82" y2="162.24" style="fill:none;stroke:#263238;stroke-miterlimit:10;stroke-width:1.08162px"/><line x1="239.47" y1="154.47" x2="247.03" y2="153.42" style="fill:none;stroke:#263238;stroke-miterlimit:10;stroke-width:1.08162px"/><line x1="212.39" y1="180.5" x2="214.49" y2="186.58" style="fill:none;stroke:#263238;stroke-miterlimit:10;stroke-width:1.08162px"/><line x1="215.12" y1="180.08" x2="221" y2="189.73" style="fill:none;stroke:#263238;stroke-miterlimit:10;stroke-width:1.08162px"/><line x1="217.22" y1="174.41" x2="222.89" y2="176.3" style="fill:none;stroke:#263238;stroke-miterlimit:10;stroke-width:1.08162px"/><polygon points="248.5 171.26 246.6 173.32 247.97 175.76 245.43 174.59 243.53 176.65 243.86 173.87 241.31 172.71 244.06 172.15 244.38 169.37 245.75 171.81 248.5 171.26" style="fill:#c6ff00;stroke:#263238;stroke-linecap:round;stroke-linejoin:round;stroke-width:0.540812px"/><polygon points="251.44 143.55 249.54 145.61 250.91 148.05 248.37 146.89 246.47 148.94 246.79 146.16 244.25 145 247 144.45 247.32 141.66 248.69 144.1 251.44 143.55" style="fill:#c6ff00;stroke:#263238;stroke-linecap:round;stroke-linejoin:round;stroke-width:0.540812px"/><polygon points="220.79 192.04 218.89 194.1 220.27 196.54 217.72 195.37 215.82 197.43 216.15 194.65 213.6 193.49 216.35 192.93 216.67 190.15 218.04 192.59 220.79 192.04" style="fill:#c6ff00;stroke:#263238;stroke-linecap:round;stroke-linejoin:round;stroke-width:0.540812px"/><ellipse cx="130.19" cy="132.3" rx="14.11" ry="13.95" style="fill:#adadad;stroke:#263238;stroke-linecap:round;stroke-linejoin:round;stroke-width:1.08162px"/><ellipse cx="191.68" cy="128.5" rx="14.11" ry="13.95" style="fill:#adadad;stroke:#263238;stroke-linecap:round;stroke-linejoin:round;stroke-width:1.08162px"/><ellipse cx="163.31" cy="157.82" rx="17.75" ry="16.96" style="fill:#c6ff00;stroke:#263238;stroke-linecap:round;stroke-linejoin:round;stroke-width:1.08162px"/><path d="M197.92,192.16l2.45,10.77a11.74,11.74,0,0,0,12.45,8.57h0a11.75,11.75,0,0,0,10.58-10.79l.83-10.77Z" transform="translate(-47.61 -43.06)" style="fill:#263238;stroke:#263238;stroke-linecap:round;stroke-linejoin:round;stroke-width:1.08162px"/><polygon points="134.15 103.78 127.49 130.4 193.74 125.01 183.91 99.65 134.15 103.78" style="fill:#fff;stroke:#263238;stroke-linecap:round;stroke-linejoin:round;stroke-width:1.08162px"/><polygon points="127.49 130.4 139.22 159.56 191.2 154.49 193.74 125.01 127.49 130.4" style="fill:#e5e5e5;stroke:#263238;stroke-linecap:round;stroke-linejoin:round;stroke-width:1.08162px"/><path d="M204.89,185.35c-.18,4.14-3.8,7.41-8.13,7.74s-8.57-2.38-9.5-6.49c-1-4.69,2.51-9.31,8.06-9.67S205.08,180.63,204.89,185.35Z" transform="translate(-47.61 -43.06)" style="fill:#c6ff00;stroke:#263238;stroke-linecap:round;stroke-linejoin:round;stroke-width:1.08162px"/><path d="M201.58,185.59a5.2,5.2,0,0,1-5,5,5.45,5.45,0,0,1-5.9-4.21c-.49-2.84,1.74-5.5,5-5.72A5.31,5.31,0,0,1,201.58,185.59Z" transform="translate(-47.61 -43.06)" style="fill:#fff;stroke:#263238;stroke-linecap:round;stroke-linejoin:round;stroke-width:1.08162px"/><path d="M234.36,182.5c-.17,4.14-3.79,7.41-8.12,7.73s-8.57-2.37-9.5-6.48c-1.05-4.7,2.51-9.31,8.06-9.67S234.56,177.78,234.36,182.5Z" transform="translate(-47.61 -43.06)" style="fill:#c6ff00;stroke:#263238;stroke-linecap:round;stroke-linejoin:round;stroke-width:1.08162px"/><path d="M231.05,182.74a5.21,5.21,0,0,1-5,5,5.45,5.45,0,0,1-5.9-4.21c-.49-2.84,1.74-5.51,5-5.73A5.31,5.31,0,0,1,231.05,182.74Z" transform="translate(-47.61 -43.06)" style="fill:#fff;stroke:#263238;stroke-linecap:round;stroke-linejoin:round;stroke-width:1.08162px"/><path d="M205.21,197.37a2.36,2.36,0,0,1-.24-4.7l12.68-1.27a2.36,2.36,0,1,1,.47,4.7l-12.68,1.26Z" transform="translate(-47.61 -43.06)" style="fill:#263238;stroke:#263238;stroke-linecap:round;stroke-linejoin:round;stroke-width:1.08162px"/><path d="M187.76,155.15a4.79,4.79,0,1,1-4.79-4.8A4.79,4.79,0,0,1,187.76,155.15Z" transform="translate(-47.61 -43.06)" style="fill:#c6ff00;stroke:#263238;stroke-linecap:round;stroke-linejoin:round;stroke-width:1.08162px"/><path d="M184.1,152.36a4.09,4.09,0,1,1-4.09-4.1A4.09,4.09,0,0,1,184.1,152.36Z" transform="translate(-47.61 -43.06)" style="fill:#c6ff00;stroke:#263238;stroke-linecap:round;stroke-linejoin:round;stroke-width:1.08162px"/><path d="M179.23,148a3.23,3.23,0,1,1-3.23-3.22A3.23,3.23,0,0,1,179.23,148Z" transform="translate(-47.61 -43.06)" style="fill:#c6ff00;stroke:#263238;stroke-linecap:round;stroke-linejoin:round;stroke-width:1.08162px"/><line x1="127.61" y1="103.81" x2="120.3" y2="97.01" style="fill:none;stroke:#263238;stroke-linecap:round;stroke-linejoin:round;stroke-width:1.08162px"/><path d="M225.22,151.84A4.79,4.79,0,1,0,230,147,4.8,4.8,0,0,0,225.22,151.84Z" transform="translate(-47.61 -43.06)" style="fill:#c6ff00;stroke:#263238;stroke-linecap:round;stroke-linejoin:round;stroke-width:1.08162px"/><path d="M228.88,149.05A4.1,4.1,0,1,0,233,145,4.09,4.09,0,0,0,228.88,149.05Z" transform="translate(-47.61 -43.06)" style="fill:#c6ff00;stroke:#263238;stroke-linecap:round;stroke-linejoin:round;stroke-width:1.08162px"/><path d="M233.76,144.69a3.22,3.22,0,1,0,3.22-3.22A3.23,3.23,0,0,0,233.76,144.69Z" transform="translate(-47.61 -43.06)" style="fill:#c6ff00;stroke:#263238;stroke-linecap:round;stroke-linejoin:round;stroke-width:1.08162px"/><line x1="190.16" y1="100.5" x2="197.48" y2="93.7" style="fill:none;stroke:#263238;stroke-linecap:round;stroke-linejoin:round;stroke-width:1.08162px"/><path d="M227,319.45c0,2.3-1.53,4.17-3.42,4.17s-3.41-1.87-3.41-4.17,1.53-4.18,3.41-4.18S227,317.14,227,319.45Z" transform="translate(-47.61 -43.06)" style="fill:#fff;stroke:#263238;stroke-linecap:round;stroke-linejoin:round;stroke-width:1.08162px"/><path d="M233.8,322.94l-.26,0-9.49-1.39a1.77,1.77,0,0,1,.51-3.5l9.49,1.39a1.77,1.77,0,0,1-.25,3.52Z" transform="translate(-47.61 -43.06)" style="fill:#fff;stroke:#263238;stroke-miterlimit:10;stroke-width:1.08162px"/><path d="M101.17,339c-1.24-1.95-1-4.35.64-5.36s3.88-.25,5.12,1.7.95,4.34-.64,5.35S102.4,340.93,101.17,339Z" transform="translate(-47.61 -43.06)" style="fill:#fff;stroke:#263238;stroke-linecap:round;stroke-linejoin:round;stroke-width:1.08162px"/><path d="M93.58,339.66l.23-.13,8.76-3.91a1.77,1.77,0,0,1,1.44,3.23l-8.75,3.92a1.78,1.78,0,0,1-2.34-.9A1.76,1.76,0,0,1,93.58,339.66Z" transform="translate(-47.61 -43.06)" style="fill:#fff;stroke:#263238;stroke-miterlimit:10;stroke-width:1.08162px"/><path d="M327.8,294.19c-1.24-1.95-.95-4.35.64-5.36s3.89-.25,5.12,1.7.95,4.34-.64,5.35S329,296.13,327.8,294.19Z" transform="translate(-47.61 -43.06)" style="fill:#fff;stroke:#263238;stroke-linecap:round;stroke-linejoin:round;stroke-width:1.08162px"/><path d="M320.22,294.86l.22-.13,8.76-3.91a1.77,1.77,0,0,1,1.44,3.24L321.89,298a1.77,1.77,0,0,1-1.67-3.11Z" transform="translate(-47.61 -43.06)" style="fill:#fff;stroke:#263238;stroke-miterlimit:10;stroke-width:1.08162px"/><path d="M158.67,340.87c-4,0-7.22,1.91-7.22,4.28s3.23,4.27,7.22,4.27,7.23-1.91,7.23-4.27S162.66,340.87,158.67,340.87Zm0,6.49c-2.06,0-3.73-1-3.73-2.21s1.67-2.22,3.73-2.22,3.74,1,3.74,2.22S160.74,347.36,158.67,347.36Z" transform="translate(-47.61 -43.06)" style="fill:#fff;stroke:#263238;stroke-miterlimit:10;stroke-width:1.08162px"/><path d="M223.76,341.55l-4.94-2-4.94,2L212.66,346l3.42,3.53h5.48L225,346Zm-3.55,5.63h-2.78l-1.74-1.79.62-2.24,2.51-1,2.51,1,.61,2.24Z" transform="translate(-47.61 -43.06)" style="fill:#fff;stroke:#263238;stroke-linecap:round;stroke-linejoin:round;stroke-width:1.08162px"/><path d="M317.31,277.67l-4.94-2-4.94,2-1.21,4.4,3.41,3.53h5.48l3.42-3.53Zm-3.55,5.62H311l-1.73-1.79.62-2.23,2.5-1,2.51,1,.62,2.23Z" transform="translate(-47.61 -43.06)" style="fill:#fff;stroke:#263238;stroke-linecap:round;stroke-linejoin:round;stroke-width:1.08162px"/><path d="M256.76,351.6a1.24,1.24,0,0,1-.41-.08,3.5,3.5,0,0,1-1.62-1.38c-.55-.85-1-2.36-.13-4.71a5.56,5.56,0,0,1,3.85-3.51,7.52,7.52,0,0,1,6.53,1.5,1.17,1.17,0,0,1,.16,1.66,1.18,1.18,0,0,1-1.66.16,5.17,5.17,0,0,0-4.42-1,3.21,3.21,0,0,0-2.25,2.06c-.89,2.36.18,3,.4,3.06a1.2,1.2,0,0,1,.63,1.54A1.18,1.18,0,0,1,256.76,351.6Z" transform="translate(-47.61 -43.06)" style="fill:#fff;stroke:#263238;stroke-linecap:round;stroke-linejoin:round;stroke-width:1.08162px"/><path d="M281.14,355.94a3.46,3.46,0,0,1-1.09-.18l-19.2-6.24a3.54,3.54,0,0,1,2.19-6.73l19.2,6.24a3.54,3.54,0,0,1-1.1,6.91Z" transform="translate(-47.61 -43.06)" style="fill:#fff;stroke:#263238;stroke-linecap:round;stroke-linejoin:round;stroke-width:1.08162px"/><path d="M260.27,349.35s.76-4.87,6.86-5" transform="translate(-47.61 -43.06)" style="fill:none;stroke:#263238;stroke-linecap:round;stroke-linejoin:round;stroke-width:1.08162px"/><path d="M264.39,350.42s.76-4.88,6.85-5" transform="translate(-47.61 -43.06)" style="fill:none;stroke:#263238;stroke-linecap:round;stroke-linejoin:round;stroke-width:1.08162px"/><path d="M268,351.79s.76-4.88,6.86-5" transform="translate(-47.61 -43.06)" style="fill:none;stroke:#263238;stroke-linecap:round;stroke-linejoin:round;stroke-width:1.08162px"/><path d="M271.85,352.86s.76-4.88,6.85-5" transform="translate(-47.61 -43.06)" style="fill:none;stroke:#263238;stroke-linecap:round;stroke-linejoin:round;stroke-width:1.08162px"/><path d="M275.66,354.23s.76-4.88,6.85-5" transform="translate(-47.61 -43.06)" style="fill:none;stroke:#263238;stroke-linecap:round;stroke-linejoin:round;stroke-width:1.08162px"/><path d="M281.13,355.86a1.12,1.12,0,0,1-.4-.07,3.51,3.51,0,0,1-1.63-1.39c-.54-.85-1-2.36-.13-4.7a5.56,5.56,0,0,1,3.85-3.51,7.51,7.51,0,0,1,6.53,1.49,1.17,1.17,0,0,1,.16,1.66,1.18,1.18,0,0,1-1.66.16,5.19,5.19,0,0,0-4.42-1,3.24,3.24,0,0,0-2.25,2.07c-.88,2.35.18,3,.4,3.06a1.19,1.19,0,0,1,.64,1.53A1.18,1.18,0,0,1,281.13,355.86Z" transform="translate(-47.61 -43.06)" style="fill:#fff;stroke:#263238;stroke-linecap:round;stroke-linejoin:round;stroke-width:1.08162px"/></g></svg>